<?xml version="1.0" encoding="UTF-8"?>
<svg xmlns="http://www.w3.org/2000/svg" xmlns:xlink="http://www.w3.org/1999/xlink" width="150px" height="150px" viewBox="0 0 150 150" version="1.1">
<g id="surface1">
<path style=" stroke:none;fill-rule:nonzero;fill:rgb(0%,0%,0%);fill-opacity:1;" d="M 121.875 93.75 L 93.75 93.75 L 93.75 84.375 L 121.875 84.375 Z M 121.875 93.75 "/>
<path style=" stroke:none;fill-rule:nonzero;fill:rgb(0%,0%,0%);fill-opacity:1;" d="M 140.625 131.25 L 112.5 131.25 L 112.5 121.875 L 140.625 121.875 Z M 140.625 131.25 "/>
<path style=" stroke:none;fill-rule:nonzero;fill:rgb(0%,0%,0%);fill-opacity:1;" d="M 131.25 112.5 L 103.125 112.5 L 103.125 103.125 L 131.25 103.125 Z M 131.25 112.5 "/>
<path style=" stroke:none;fill-rule:nonzero;fill:rgb(0%,0%,0%);fill-opacity:1;" d="M 79.699219 93.75 C 79.632812 85.703125 75.355469 78.28125 68.429688 74.191406 L 103.125 14.0625 L 95.011719 9.375 L 59.5 70.902344 C 50.640625 68.921875 41.386719 71.578125 34.921875 77.949219 C 17.375 94.875 18.734375 134.449219 18.796875 136.125 C 18.898438 138.640625 20.96875 140.628906 23.484375 140.625 L 93.753906 140.625 C 95.773438 140.625 97.566406 139.332031 98.203125 137.417969 C 98.839844 135.503906 98.183594 133.398438 96.566406 132.1875 C 79.976562 119.738281 79.699219 94 79.699219 93.75 Z M 55.921875 79.675781 C 63.714844 79.757812 70.0625 85.960938 70.332031 93.75 C 70.332031 93.929688 70.339844 94.726562 70.410156 95.949219 L 42.757812 83.648438 C 46.4375 80.617188 51.179688 79.183594 55.921875 79.675781 Z M 72.417969 131.25 C 68.671875 127.433594 66.285156 122.492188 65.625 117.1875 L 56.25 117.1875 C 56.585938 122.175781 58.144531 127.007812 60.789062 131.25 L 50.367188 131.25 C 48.441406 125.167969 47.265625 118.871094 46.875 112.5 L 37.5 112.5 C 37.800781 118.851562 38.847656 125.144531 40.617188 131.25 L 28.125 131.25 C 28.269531 122.640625 29.484375 103.628906 36.574219 91.160156 L 71.886719 106.863281 C 73.585938 115.671875 77.203125 124 82.484375 131.25 Z M 72.417969 131.25 "/>
</g>
</svg>
